<mxfile host="app.diagrams.net" modified="2024-07-04T15:01:36.898Z" agent="Mozilla/5.0 (Windows NT 10.0; Win64; x64) AppleWebKit/537.36 (KHTML, like Gecko) Chrome/126.0.0.0 Safari/537.36" etag="j9R0Fs3gIBZXXkGg6Rah" version="24.6.4" type="google">
  <diagram name="หน้า-1" id="MenycWWUQtE5greAOLNI">
    <mxGraphModel dx="2420" dy="867" grid="1" gridSize="10" guides="1" tooltips="1" connect="1" arrows="1" fold="1" page="1" pageScale="1" pageWidth="827" pageHeight="1169" math="0" shadow="0">
      <root>
        <mxCell id="0" />
        <mxCell id="1" parent="0" />
        <mxCell id="lMeTxUYr87tz4j47A-YI-1" value="Start" style="ellipse;whiteSpace=wrap;html=1;" vertex="1" parent="1">
          <mxGeometry x="20" y="10" width="100" height="40" as="geometry" />
        </mxCell>
        <mxCell id="lMeTxUYr87tz4j47A-YI-2" value="" style="endArrow=classic;html=1;rounded=0;exitX=0.5;exitY=1;exitDx=0;exitDy=0;" edge="1" parent="1">
          <mxGeometry width="50" height="50" relative="1" as="geometry">
            <mxPoint x="70" y="50" as="sourcePoint" />
            <mxPoint x="70" y="90" as="targetPoint" />
          </mxGeometry>
        </mxCell>
        <mxCell id="lMeTxUYr87tz4j47A-YI-3" value="Aแทนค่า รับธนาบัตร500/A=3" style="shape=parallelogram;perimeter=parallelogramPerimeter;whiteSpace=wrap;html=1;fixedSize=1;" vertex="1" parent="1">
          <mxGeometry x="-10" y="90" width="180" height="40" as="geometry" />
        </mxCell>
        <mxCell id="lMeTxUYr87tz4j47A-YI-5" value="Bแทนค่า รับธนาบัตร100./B=2" style="shape=parallelogram;perimeter=parallelogramPerimeter;whiteSpace=wrap;html=1;fixedSize=1;" vertex="1" parent="1">
          <mxGeometry x="-20" y="170" width="190" height="40" as="geometry" />
        </mxCell>
        <mxCell id="lMeTxUYr87tz4j47A-YI-7" value="Cแทนค่า รับธนาบัตร50/C=3" style="shape=parallelogram;perimeter=parallelogramPerimeter;whiteSpace=wrap;html=1;fixedSize=1;" vertex="1" parent="1">
          <mxGeometry y="260" width="170" height="40" as="geometry" />
        </mxCell>
        <mxCell id="lMeTxUYr87tz4j47A-YI-9" value="Dแทนค่า รับธนาบัตร20/D=100" style="shape=parallelogram;perimeter=parallelogramPerimeter;whiteSpace=wrap;html=1;fixedSize=1;" vertex="1" parent="1">
          <mxGeometry x="-10" y="340" width="180" height="40" as="geometry" />
        </mxCell>
        <mxCell id="lMeTxUYr87tz4j47A-YI-11" value="Cแทนค่า รับธนาบัตร10=200" style="shape=parallelogram;perimeter=parallelogramPerimeter;whiteSpace=wrap;html=1;fixedSize=1;" vertex="1" parent="1">
          <mxGeometry y="420" width="170" height="40" as="geometry" />
        </mxCell>
        <mxCell id="lMeTxUYr87tz4j47A-YI-19" value="รับรายการขนม" style="shape=parallelogram;perimeter=parallelogramPerimeter;whiteSpace=wrap;html=1;fixedSize=1;" vertex="1" parent="1">
          <mxGeometry x="10" y="490" width="145" height="40" as="geometry" />
        </mxCell>
        <mxCell id="lMeTxUYr87tz4j47A-YI-21" value="AA แทนค่าเป็น เงินทอน" style="shape=parallelogram;perimeter=parallelogramPerimeter;whiteSpace=wrap;html=1;fixedSize=1;" vertex="1" parent="1">
          <mxGeometry x="10" y="570" width="150" height="40" as="geometry" />
        </mxCell>
        <mxCell id="lMeTxUYr87tz4j47A-YI-24" value="กำหนดค่าขนม 30&amp;nbsp;" style="shape=parallelogram;perimeter=parallelogramPerimeter;whiteSpace=wrap;html=1;fixedSize=1;" vertex="1" parent="1">
          <mxGeometry x="10" y="650" width="150" height="40" as="geometry" />
        </mxCell>
        <mxCell id="lMeTxUYr87tz4j47A-YI-33" value="" style="edgeStyle=orthogonalEdgeStyle;rounded=0;orthogonalLoop=1;jettySize=auto;html=1;" edge="1" parent="1" source="lMeTxUYr87tz4j47A-YI-28">
          <mxGeometry relative="1" as="geometry">
            <mxPoint x="80" y="820" as="targetPoint" />
          </mxGeometry>
        </mxCell>
        <mxCell id="lMeTxUYr87tz4j47A-YI-28" value="X=1000" style="shape=parallelogram;perimeter=parallelogramPerimeter;whiteSpace=wrap;html=1;fixedSize=1;" vertex="1" parent="1">
          <mxGeometry x="10" y="740" width="142.5" height="40" as="geometry" />
        </mxCell>
        <mxCell id="lMeTxUYr87tz4j47A-YI-29" value="" style="endArrow=classic;html=1;rounded=0;" edge="1" parent="1">
          <mxGeometry width="50" height="50" relative="1" as="geometry">
            <mxPoint x="80" y="780" as="sourcePoint" />
            <mxPoint x="80" y="820" as="targetPoint" />
          </mxGeometry>
        </mxCell>
        <mxCell id="lMeTxUYr87tz4j47A-YI-34" value="" style="endArrow=classic;html=1;rounded=0;exitX=0.5;exitY=1;exitDx=0;exitDy=0;" edge="1" parent="1">
          <mxGeometry width="50" height="50" relative="1" as="geometry">
            <mxPoint x="69.5" y="130" as="sourcePoint" />
            <mxPoint x="69.5" y="170" as="targetPoint" />
          </mxGeometry>
        </mxCell>
        <mxCell id="lMeTxUYr87tz4j47A-YI-35" value="" style="endArrow=classic;html=1;rounded=0;exitX=0.5;exitY=1;exitDx=0;exitDy=0;entryX=0.409;entryY=0;entryDx=0;entryDy=0;entryPerimeter=0;" edge="1" parent="1" target="lMeTxUYr87tz4j47A-YI-7">
          <mxGeometry width="50" height="50" relative="1" as="geometry">
            <mxPoint x="69.5" y="210" as="sourcePoint" />
            <mxPoint x="69.5" y="250" as="targetPoint" />
          </mxGeometry>
        </mxCell>
        <mxCell id="lMeTxUYr87tz4j47A-YI-36" value="" style="endArrow=classic;html=1;rounded=0;exitX=0.5;exitY=1;exitDx=0;exitDy=0;entryX=0.45;entryY=-0.025;entryDx=0;entryDy=0;entryPerimeter=0;" edge="1" parent="1" target="lMeTxUYr87tz4j47A-YI-9">
          <mxGeometry width="50" height="50" relative="1" as="geometry">
            <mxPoint x="70" y="300" as="sourcePoint" />
            <mxPoint x="190" y="370" as="targetPoint" />
          </mxGeometry>
        </mxCell>
        <mxCell id="lMeTxUYr87tz4j47A-YI-37" value="" style="endArrow=classic;html=1;rounded=0;entryX=0.438;entryY=0.05;entryDx=0;entryDy=0;entryPerimeter=0;exitX=0.461;exitY=1.075;exitDx=0;exitDy=0;exitPerimeter=0;" edge="1" parent="1" source="lMeTxUYr87tz4j47A-YI-9" target="lMeTxUYr87tz4j47A-YI-11">
          <mxGeometry width="50" height="50" relative="1" as="geometry">
            <mxPoint x="80" y="381" as="sourcePoint" />
            <mxPoint x="110" y="130" as="targetPoint" />
          </mxGeometry>
        </mxCell>
        <mxCell id="lMeTxUYr87tz4j47A-YI-38" value="" style="endArrow=classic;html=1;rounded=0;exitX=0.444;exitY=1.05;exitDx=0;exitDy=0;entryX=0.428;entryY=-0.075;entryDx=0;entryDy=0;entryPerimeter=0;exitPerimeter=0;" edge="1" parent="1" source="lMeTxUYr87tz4j47A-YI-11" target="lMeTxUYr87tz4j47A-YI-19">
          <mxGeometry width="50" height="50" relative="1" as="geometry">
            <mxPoint x="80" y="310" as="sourcePoint" />
            <mxPoint x="80" y="351" as="targetPoint" />
          </mxGeometry>
        </mxCell>
        <mxCell id="lMeTxUYr87tz4j47A-YI-40" value="" style="endArrow=classic;html=1;rounded=0;exitX=0.434;exitY=1.1;exitDx=0;exitDy=0;exitPerimeter=0;entryX=0.433;entryY=0;entryDx=0;entryDy=0;entryPerimeter=0;" edge="1" parent="1" source="lMeTxUYr87tz4j47A-YI-19" target="lMeTxUYr87tz4j47A-YI-21">
          <mxGeometry width="50" height="50" relative="1" as="geometry">
            <mxPoint x="350" y="610" as="sourcePoint" />
            <mxPoint x="400" y="560" as="targetPoint" />
          </mxGeometry>
        </mxCell>
        <mxCell id="lMeTxUYr87tz4j47A-YI-41" value="" style="endArrow=classic;html=1;rounded=0;entryX=0.433;entryY=0.025;entryDx=0;entryDy=0;entryPerimeter=0;" edge="1" parent="1" target="lMeTxUYr87tz4j47A-YI-24">
          <mxGeometry width="50" height="50" relative="1" as="geometry">
            <mxPoint x="74.5" y="610" as="sourcePoint" />
            <mxPoint x="74.5" y="680" as="targetPoint" />
          </mxGeometry>
        </mxCell>
        <mxCell id="lMeTxUYr87tz4j47A-YI-42" value="" style="endArrow=classic;html=1;rounded=0;entryX=0.5;entryY=0;entryDx=0;entryDy=0;" edge="1" parent="1" target="lMeTxUYr87tz4j47A-YI-28">
          <mxGeometry width="50" height="50" relative="1" as="geometry">
            <mxPoint x="79.5" y="690" as="sourcePoint" />
            <mxPoint x="80" y="731" as="targetPoint" />
          </mxGeometry>
        </mxCell>
        <mxCell id="lMeTxUYr87tz4j47A-YI-43" value="ตรวจสอบสินค้า" style="shape=parallelogram;perimeter=parallelogramPerimeter;whiteSpace=wrap;html=1;fixedSize=1;" vertex="1" parent="1">
          <mxGeometry x="10" y="820" width="150" height="40" as="geometry" />
        </mxCell>
        <mxCell id="lMeTxUYr87tz4j47A-YI-45" value="" style="edgeStyle=orthogonalEdgeStyle;rounded=0;orthogonalLoop=1;jettySize=auto;html=1;" edge="1" parent="1" source="lMeTxUYr87tz4j47A-YI-46">
          <mxGeometry relative="1" as="geometry">
            <mxPoint x="90" y="1070" as="targetPoint" />
          </mxGeometry>
        </mxCell>
        <mxCell id="lMeTxUYr87tz4j47A-YI-46" value="คำณวนค่าขนม" style="shape=parallelogram;perimeter=parallelogramPerimeter;whiteSpace=wrap;html=1;fixedSize=1;" vertex="1" parent="1">
          <mxGeometry x="20" y="990" width="142.5" height="40" as="geometry" />
        </mxCell>
        <mxCell id="lMeTxUYr87tz4j47A-YI-47" value="" style="endArrow=classic;html=1;rounded=0;" edge="1" parent="1">
          <mxGeometry width="50" height="50" relative="1" as="geometry">
            <mxPoint x="90" y="1030" as="sourcePoint" />
            <mxPoint x="90" y="1070" as="targetPoint" />
          </mxGeometry>
        </mxCell>
        <mxCell id="lMeTxUYr87tz4j47A-YI-48" value="X=X-30" style="shape=parallelogram;perimeter=parallelogramPerimeter;whiteSpace=wrap;html=1;fixedSize=1;" vertex="1" parent="1">
          <mxGeometry x="20" y="1070" width="150" height="40" as="geometry" />
        </mxCell>
        <mxCell id="lMeTxUYr87tz4j47A-YI-49" value="" style="endArrow=classic;html=1;rounded=0;exitX=0.46;exitY=1.025;exitDx=0;exitDy=0;exitPerimeter=0;" edge="1" parent="1" source="lMeTxUYr87tz4j47A-YI-43">
          <mxGeometry width="50" height="50" relative="1" as="geometry">
            <mxPoint x="180" y="880" as="sourcePoint" />
            <mxPoint x="80" y="900" as="targetPoint" />
          </mxGeometry>
        </mxCell>
        <mxCell id="lMeTxUYr87tz4j47A-YI-51" value="" style="endArrow=classic;html=1;rounded=0;exitX=0.5;exitY=1;exitDx=0;exitDy=0;" edge="1" parent="1" source="lMeTxUYr87tz4j47A-YI-48">
          <mxGeometry width="50" height="50" relative="1" as="geometry">
            <mxPoint x="360" y="1100" as="sourcePoint" />
            <mxPoint x="95" y="1160" as="targetPoint" />
          </mxGeometry>
        </mxCell>
        <mxCell id="lMeTxUYr87tz4j47A-YI-52" value="X&amp;gt;=A" style="rhombus;whiteSpace=wrap;html=1;" vertex="1" parent="1">
          <mxGeometry x="55" y="1160" width="80" height="80" as="geometry" />
        </mxCell>
        <mxCell id="lMeTxUYr87tz4j47A-YI-53" value="" style="endArrow=classic;html=1;rounded=0;exitX=0.5;exitY=1;exitDx=0;exitDy=0;" edge="1" parent="1" source="lMeTxUYr87tz4j47A-YI-52">
          <mxGeometry width="50" height="50" relative="1" as="geometry">
            <mxPoint x="360" y="1100" as="sourcePoint" />
            <mxPoint x="95" y="1290" as="targetPoint" />
          </mxGeometry>
        </mxCell>
        <mxCell id="lMeTxUYr87tz4j47A-YI-54" value="A==0" style="rhombus;whiteSpace=wrap;html=1;" vertex="1" parent="1">
          <mxGeometry x="55" y="1290" width="80" height="80" as="geometry" />
        </mxCell>
        <mxCell id="lMeTxUYr87tz4j47A-YI-55" value="" style="endArrow=classic;html=1;rounded=0;exitX=0.5;exitY=1;exitDx=0;exitDy=0;" edge="1" parent="1" source="lMeTxUYr87tz4j47A-YI-54">
          <mxGeometry width="50" height="50" relative="1" as="geometry">
            <mxPoint x="60" y="1240" as="sourcePoint" />
            <mxPoint x="95" y="1420" as="targetPoint" />
          </mxGeometry>
        </mxCell>
        <mxCell id="lMeTxUYr87tz4j47A-YI-60" value="" style="edgeStyle=orthogonalEdgeStyle;rounded=0;orthogonalLoop=1;jettySize=auto;html=1;" edge="1" parent="1" source="lMeTxUYr87tz4j47A-YI-56">
          <mxGeometry relative="1" as="geometry">
            <mxPoint x="95" y="1520" as="targetPoint" />
          </mxGeometry>
        </mxCell>
        <mxCell id="lMeTxUYr87tz4j47A-YI-56" value="X=X-500" style="rounded=0;whiteSpace=wrap;html=1;" vertex="1" parent="1">
          <mxGeometry x="35" y="1420" width="120" height="50" as="geometry" />
        </mxCell>
        <mxCell id="lMeTxUYr87tz4j47A-YI-62" value="" style="edgeStyle=orthogonalEdgeStyle;rounded=0;orthogonalLoop=1;jettySize=auto;html=1;" edge="1" parent="1" source="lMeTxUYr87tz4j47A-YI-63">
          <mxGeometry relative="1" as="geometry">
            <mxPoint x="95" y="1620" as="targetPoint" />
          </mxGeometry>
        </mxCell>
        <mxCell id="lMeTxUYr87tz4j47A-YI-63" value="A=A-1" style="rounded=0;whiteSpace=wrap;html=1;" vertex="1" parent="1">
          <mxGeometry x="35" y="1520" width="120" height="50" as="geometry" />
        </mxCell>
        <mxCell id="lMeTxUYr87tz4j47A-YI-65" value="AA=AA+1" style="rounded=0;whiteSpace=wrap;html=1;" vertex="1" parent="1">
          <mxGeometry x="35" y="1620" width="120" height="50" as="geometry" />
        </mxCell>
        <mxCell id="lMeTxUYr87tz4j47A-YI-66" value="" style="endArrow=classic;html=1;rounded=0;exitX=0.5;exitY=1;exitDx=0;exitDy=0;" edge="1" parent="1" source="lMeTxUYr87tz4j47A-YI-65">
          <mxGeometry width="50" height="50" relative="1" as="geometry">
            <mxPoint x="60" y="1650" as="sourcePoint" />
            <mxPoint x="95" y="1130" as="targetPoint" />
            <Array as="points">
              <mxPoint x="95" y="1720" />
              <mxPoint y="1720" />
              <mxPoint y="1130" />
            </Array>
          </mxGeometry>
        </mxCell>
        <mxCell id="lMeTxUYr87tz4j47A-YI-67" value="" style="endArrow=classic;html=1;rounded=0;entryX=0.5;entryY=0;entryDx=0;entryDy=0;" edge="1" parent="1" target="lMeTxUYr87tz4j47A-YI-68">
          <mxGeometry width="50" height="50" relative="1" as="geometry">
            <mxPoint x="135" y="1200" as="sourcePoint" />
            <mxPoint x="260" y="1200" as="targetPoint" />
            <Array as="points">
              <mxPoint x="340" y="1200" />
            </Array>
          </mxGeometry>
        </mxCell>
        <mxCell id="lMeTxUYr87tz4j47A-YI-68" value="" style="ellipse;whiteSpace=wrap;html=1;" vertex="1" parent="1">
          <mxGeometry x="320" y="1230" width="40" height="40" as="geometry" />
        </mxCell>
        <mxCell id="lMeTxUYr87tz4j47A-YI-69" value="" style="endArrow=classic;html=1;rounded=0;" edge="1" parent="1">
          <mxGeometry width="50" height="50" relative="1" as="geometry">
            <mxPoint x="135" y="1330" as="sourcePoint" />
            <mxPoint x="200" y="1200" as="targetPoint" />
            <Array as="points">
              <mxPoint x="200" y="1330" />
            </Array>
          </mxGeometry>
        </mxCell>
        <mxCell id="lMeTxUYr87tz4j47A-YI-74" value="X&amp;gt;=B" style="rhombus;whiteSpace=wrap;html=1;" vertex="1" parent="1">
          <mxGeometry x="300" y="1310" width="80" height="80" as="geometry" />
        </mxCell>
        <mxCell id="lMeTxUYr87tz4j47A-YI-75" value="" style="endArrow=classic;html=1;rounded=0;exitX=0.5;exitY=1;exitDx=0;exitDy=0;" edge="1" parent="1" source="lMeTxUYr87tz4j47A-YI-74">
          <mxGeometry width="50" height="50" relative="1" as="geometry">
            <mxPoint x="605" y="1250" as="sourcePoint" />
            <mxPoint x="340" y="1440" as="targetPoint" />
          </mxGeometry>
        </mxCell>
        <mxCell id="lMeTxUYr87tz4j47A-YI-76" value="B==0" style="rhombus;whiteSpace=wrap;html=1;" vertex="1" parent="1">
          <mxGeometry x="300" y="1440" width="80" height="80" as="geometry" />
        </mxCell>
        <mxCell id="lMeTxUYr87tz4j47A-YI-77" value="" style="endArrow=classic;html=1;rounded=0;exitX=0.5;exitY=1;exitDx=0;exitDy=0;" edge="1" parent="1" source="lMeTxUYr87tz4j47A-YI-76">
          <mxGeometry width="50" height="50" relative="1" as="geometry">
            <mxPoint x="305" y="1390" as="sourcePoint" />
            <mxPoint x="340" y="1570" as="targetPoint" />
          </mxGeometry>
        </mxCell>
        <mxCell id="lMeTxUYr87tz4j47A-YI-78" value="" style="edgeStyle=orthogonalEdgeStyle;rounded=0;orthogonalLoop=1;jettySize=auto;html=1;" edge="1" parent="1" source="lMeTxUYr87tz4j47A-YI-79">
          <mxGeometry relative="1" as="geometry">
            <mxPoint x="340" y="1670" as="targetPoint" />
          </mxGeometry>
        </mxCell>
        <mxCell id="lMeTxUYr87tz4j47A-YI-79" value="X=X-100" style="rounded=0;whiteSpace=wrap;html=1;" vertex="1" parent="1">
          <mxGeometry x="280" y="1570" width="120" height="50" as="geometry" />
        </mxCell>
        <mxCell id="lMeTxUYr87tz4j47A-YI-80" value="" style="edgeStyle=orthogonalEdgeStyle;rounded=0;orthogonalLoop=1;jettySize=auto;html=1;" edge="1" parent="1" source="lMeTxUYr87tz4j47A-YI-81">
          <mxGeometry relative="1" as="geometry">
            <mxPoint x="340" y="1770" as="targetPoint" />
          </mxGeometry>
        </mxCell>
        <mxCell id="lMeTxUYr87tz4j47A-YI-81" value="B=B-1" style="rounded=0;whiteSpace=wrap;html=1;" vertex="1" parent="1">
          <mxGeometry x="280" y="1670" width="120" height="50" as="geometry" />
        </mxCell>
        <mxCell id="lMeTxUYr87tz4j47A-YI-82" value="AA=AA+1" style="rounded=0;whiteSpace=wrap;html=1;" vertex="1" parent="1">
          <mxGeometry x="280" y="1770" width="120" height="50" as="geometry" />
        </mxCell>
        <mxCell id="lMeTxUYr87tz4j47A-YI-84" value="" style="endArrow=classic;html=1;rounded=0;exitX=0.5;exitY=1;exitDx=0;exitDy=0;" edge="1" parent="1" source="lMeTxUYr87tz4j47A-YI-68" target="lMeTxUYr87tz4j47A-YI-74">
          <mxGeometry width="50" height="50" relative="1" as="geometry">
            <mxPoint x="150" y="1610" as="sourcePoint" />
            <mxPoint x="200" y="1560" as="targetPoint" />
          </mxGeometry>
        </mxCell>
        <mxCell id="lMeTxUYr87tz4j47A-YI-85" value="" style="endArrow=classic;html=1;rounded=0;exitX=0.5;exitY=1;exitDx=0;exitDy=0;entryX=0;entryY=0.5;entryDx=0;entryDy=0;" edge="1" parent="1" source="lMeTxUYr87tz4j47A-YI-82" target="lMeTxUYr87tz4j47A-YI-68">
          <mxGeometry width="50" height="50" relative="1" as="geometry">
            <mxPoint x="150" y="1510" as="sourcePoint" />
            <mxPoint x="200" y="1460" as="targetPoint" />
            <Array as="points">
              <mxPoint x="340" y="1860" />
              <mxPoint x="260" y="1860" />
              <mxPoint x="260" y="1250" />
            </Array>
          </mxGeometry>
        </mxCell>
        <mxCell id="lMeTxUYr87tz4j47A-YI-86" value="X&amp;gt;=C" style="rhombus;whiteSpace=wrap;html=1;" vertex="1" parent="1">
          <mxGeometry x="500" y="1460" width="80" height="80" as="geometry" />
        </mxCell>
        <mxCell id="lMeTxUYr87tz4j47A-YI-87" value="" style="endArrow=classic;html=1;rounded=0;exitX=0.5;exitY=1;exitDx=0;exitDy=0;" edge="1" parent="1" source="lMeTxUYr87tz4j47A-YI-86">
          <mxGeometry width="50" height="50" relative="1" as="geometry">
            <mxPoint x="805" y="1400" as="sourcePoint" />
            <mxPoint x="540" y="1590" as="targetPoint" />
          </mxGeometry>
        </mxCell>
        <mxCell id="lMeTxUYr87tz4j47A-YI-88" value="C==0" style="rhombus;whiteSpace=wrap;html=1;" vertex="1" parent="1">
          <mxGeometry x="500" y="1590" width="80" height="80" as="geometry" />
        </mxCell>
        <mxCell id="lMeTxUYr87tz4j47A-YI-89" value="" style="endArrow=classic;html=1;rounded=0;exitX=0.5;exitY=1;exitDx=0;exitDy=0;" edge="1" parent="1" source="lMeTxUYr87tz4j47A-YI-88">
          <mxGeometry width="50" height="50" relative="1" as="geometry">
            <mxPoint x="505" y="1540" as="sourcePoint" />
            <mxPoint x="540" y="1720" as="targetPoint" />
          </mxGeometry>
        </mxCell>
        <mxCell id="lMeTxUYr87tz4j47A-YI-90" value="" style="edgeStyle=orthogonalEdgeStyle;rounded=0;orthogonalLoop=1;jettySize=auto;html=1;" edge="1" parent="1" source="lMeTxUYr87tz4j47A-YI-91">
          <mxGeometry relative="1" as="geometry">
            <mxPoint x="540" y="1820" as="targetPoint" />
          </mxGeometry>
        </mxCell>
        <mxCell id="lMeTxUYr87tz4j47A-YI-91" value="X=X-50" style="rounded=0;whiteSpace=wrap;html=1;" vertex="1" parent="1">
          <mxGeometry x="480" y="1720" width="120" height="50" as="geometry" />
        </mxCell>
        <mxCell id="lMeTxUYr87tz4j47A-YI-92" value="" style="edgeStyle=orthogonalEdgeStyle;rounded=0;orthogonalLoop=1;jettySize=auto;html=1;" edge="1" parent="1" source="lMeTxUYr87tz4j47A-YI-93">
          <mxGeometry relative="1" as="geometry">
            <mxPoint x="540" y="1920" as="targetPoint" />
          </mxGeometry>
        </mxCell>
        <mxCell id="lMeTxUYr87tz4j47A-YI-93" value="C=C-1" style="rounded=0;whiteSpace=wrap;html=1;" vertex="1" parent="1">
          <mxGeometry x="480" y="1820" width="120" height="50" as="geometry" />
        </mxCell>
        <mxCell id="lMeTxUYr87tz4j47A-YI-94" value="AA=AA+1" style="rounded=0;whiteSpace=wrap;html=1;" vertex="1" parent="1">
          <mxGeometry x="480" y="1920" width="120" height="50" as="geometry" />
        </mxCell>
        <mxCell id="lMeTxUYr87tz4j47A-YI-95" value="" style="endArrow=classic;html=1;rounded=0;" edge="1" parent="1">
          <mxGeometry width="50" height="50" relative="1" as="geometry">
            <mxPoint x="580" y="1630" as="sourcePoint" />
            <mxPoint x="645" y="1500" as="targetPoint" />
            <Array as="points">
              <mxPoint x="645" y="1630" />
            </Array>
          </mxGeometry>
        </mxCell>
        <mxCell id="lMeTxUYr87tz4j47A-YI-96" value="" style="endArrow=classic;html=1;rounded=0;entryX=0.5;entryY=0;entryDx=0;entryDy=0;" edge="1" parent="1" target="lMeTxUYr87tz4j47A-YI-97">
          <mxGeometry width="50" height="50" relative="1" as="geometry">
            <mxPoint x="380" y="1350" as="sourcePoint" />
            <mxPoint x="510" y="1350" as="targetPoint" />
            <Array as="points">
              <mxPoint x="540" y="1350" />
            </Array>
          </mxGeometry>
        </mxCell>
        <mxCell id="lMeTxUYr87tz4j47A-YI-97" value="" style="ellipse;whiteSpace=wrap;html=1;" vertex="1" parent="1">
          <mxGeometry x="520" y="1380" width="40" height="40" as="geometry" />
        </mxCell>
        <mxCell id="lMeTxUYr87tz4j47A-YI-98" value="" style="endArrow=classic;html=1;rounded=0;entryX=0.5;entryY=0;entryDx=0;entryDy=0;" edge="1" parent="1" target="lMeTxUYr87tz4j47A-YI-86">
          <mxGeometry width="50" height="50" relative="1" as="geometry">
            <mxPoint x="540" y="1420" as="sourcePoint" />
            <mxPoint x="590" y="1370" as="targetPoint" />
          </mxGeometry>
        </mxCell>
        <mxCell id="lMeTxUYr87tz4j47A-YI-99" value="" style="endArrow=classic;html=1;rounded=0;exitX=0.5;exitY=1;exitDx=0;exitDy=0;entryX=0;entryY=0.5;entryDx=0;entryDy=0;" edge="1" parent="1" source="lMeTxUYr87tz4j47A-YI-94" target="lMeTxUYr87tz4j47A-YI-97">
          <mxGeometry width="50" height="50" relative="1" as="geometry">
            <mxPoint x="80" y="1660" as="sourcePoint" />
            <mxPoint x="130" y="1610" as="targetPoint" />
            <Array as="points">
              <mxPoint x="540" y="2030" />
              <mxPoint x="450" y="2030" />
              <mxPoint x="450" y="1400" />
            </Array>
          </mxGeometry>
        </mxCell>
        <mxCell id="lMeTxUYr87tz4j47A-YI-101" value="X&amp;gt;=D" style="rhombus;whiteSpace=wrap;html=1;" vertex="1" parent="1">
          <mxGeometry x="720" y="1610" width="80" height="80" as="geometry" />
        </mxCell>
        <mxCell id="lMeTxUYr87tz4j47A-YI-102" value="" style="endArrow=classic;html=1;rounded=0;exitX=0.5;exitY=1;exitDx=0;exitDy=0;" edge="1" parent="1" source="lMeTxUYr87tz4j47A-YI-101">
          <mxGeometry width="50" height="50" relative="1" as="geometry">
            <mxPoint x="1025" y="1550" as="sourcePoint" />
            <mxPoint x="760" y="1740" as="targetPoint" />
          </mxGeometry>
        </mxCell>
        <mxCell id="lMeTxUYr87tz4j47A-YI-103" value="D==0" style="rhombus;whiteSpace=wrap;html=1;" vertex="1" parent="1">
          <mxGeometry x="720" y="1740" width="80" height="80" as="geometry" />
        </mxCell>
        <mxCell id="lMeTxUYr87tz4j47A-YI-104" value="" style="endArrow=classic;html=1;rounded=0;exitX=0.5;exitY=1;exitDx=0;exitDy=0;" edge="1" parent="1" source="lMeTxUYr87tz4j47A-YI-103">
          <mxGeometry width="50" height="50" relative="1" as="geometry">
            <mxPoint x="725" y="1690" as="sourcePoint" />
            <mxPoint x="760" y="1870" as="targetPoint" />
          </mxGeometry>
        </mxCell>
        <mxCell id="lMeTxUYr87tz4j47A-YI-105" value="" style="edgeStyle=orthogonalEdgeStyle;rounded=0;orthogonalLoop=1;jettySize=auto;html=1;" edge="1" parent="1" source="lMeTxUYr87tz4j47A-YI-106">
          <mxGeometry relative="1" as="geometry">
            <mxPoint x="760" y="1970" as="targetPoint" />
          </mxGeometry>
        </mxCell>
        <mxCell id="lMeTxUYr87tz4j47A-YI-106" value="X=X-20" style="rounded=0;whiteSpace=wrap;html=1;" vertex="1" parent="1">
          <mxGeometry x="700" y="1870" width="120" height="50" as="geometry" />
        </mxCell>
        <mxCell id="lMeTxUYr87tz4j47A-YI-107" value="" style="edgeStyle=orthogonalEdgeStyle;rounded=0;orthogonalLoop=1;jettySize=auto;html=1;" edge="1" parent="1" source="lMeTxUYr87tz4j47A-YI-108">
          <mxGeometry relative="1" as="geometry">
            <mxPoint x="760" y="2070" as="targetPoint" />
          </mxGeometry>
        </mxCell>
        <mxCell id="lMeTxUYr87tz4j47A-YI-108" value="D=D-1" style="rounded=0;whiteSpace=wrap;html=1;" vertex="1" parent="1">
          <mxGeometry x="700" y="1970" width="120" height="50" as="geometry" />
        </mxCell>
        <mxCell id="lMeTxUYr87tz4j47A-YI-109" value="AA=AA+1" style="rounded=0;whiteSpace=wrap;html=1;" vertex="1" parent="1">
          <mxGeometry x="700" y="2070" width="120" height="50" as="geometry" />
        </mxCell>
        <mxCell id="lMeTxUYr87tz4j47A-YI-110" value="" style="endArrow=classic;html=1;rounded=0;" edge="1" parent="1">
          <mxGeometry width="50" height="50" relative="1" as="geometry">
            <mxPoint x="800" y="1780" as="sourcePoint" />
            <mxPoint x="865" y="1650" as="targetPoint" />
            <Array as="points">
              <mxPoint x="865" y="1780" />
            </Array>
          </mxGeometry>
        </mxCell>
        <mxCell id="lMeTxUYr87tz4j47A-YI-111" value="" style="ellipse;whiteSpace=wrap;html=1;" vertex="1" parent="1">
          <mxGeometry x="740" y="1525" width="40" height="40" as="geometry" />
        </mxCell>
        <mxCell id="lMeTxUYr87tz4j47A-YI-112" value="" style="endArrow=classic;html=1;rounded=0;exitX=1;exitY=0.5;exitDx=0;exitDy=0;entryX=0.5;entryY=0;entryDx=0;entryDy=0;" edge="1" parent="1" source="lMeTxUYr87tz4j47A-YI-86" target="lMeTxUYr87tz4j47A-YI-111">
          <mxGeometry width="50" height="50" relative="1" as="geometry">
            <mxPoint x="340" y="1620" as="sourcePoint" />
            <mxPoint x="390" y="1570" as="targetPoint" />
            <Array as="points">
              <mxPoint x="760" y="1500" />
            </Array>
          </mxGeometry>
        </mxCell>
        <mxCell id="lMeTxUYr87tz4j47A-YI-113" value="" style="endArrow=classic;html=1;rounded=0;exitX=0.5;exitY=1;exitDx=0;exitDy=0;" edge="1" parent="1" source="lMeTxUYr87tz4j47A-YI-111" target="lMeTxUYr87tz4j47A-YI-101">
          <mxGeometry width="50" height="50" relative="1" as="geometry">
            <mxPoint x="340" y="1910" as="sourcePoint" />
            <mxPoint x="390" y="1860" as="targetPoint" />
          </mxGeometry>
        </mxCell>
        <mxCell id="lMeTxUYr87tz4j47A-YI-114" value="X&amp;gt;=E" style="rhombus;whiteSpace=wrap;html=1;" vertex="1" parent="1">
          <mxGeometry x="930" y="1790" width="80" height="80" as="geometry" />
        </mxCell>
        <mxCell id="lMeTxUYr87tz4j47A-YI-115" value="" style="endArrow=classic;html=1;rounded=0;exitX=0.5;exitY=1;exitDx=0;exitDy=0;" edge="1" parent="1" source="lMeTxUYr87tz4j47A-YI-114">
          <mxGeometry width="50" height="50" relative="1" as="geometry">
            <mxPoint x="1235" y="1730" as="sourcePoint" />
            <mxPoint x="970" y="1920" as="targetPoint" />
          </mxGeometry>
        </mxCell>
        <mxCell id="lMeTxUYr87tz4j47A-YI-116" value="E==0" style="rhombus;whiteSpace=wrap;html=1;" vertex="1" parent="1">
          <mxGeometry x="930" y="1920" width="80" height="80" as="geometry" />
        </mxCell>
        <mxCell id="lMeTxUYr87tz4j47A-YI-117" value="" style="endArrow=classic;html=1;rounded=0;exitX=0.5;exitY=1;exitDx=0;exitDy=0;" edge="1" parent="1" source="lMeTxUYr87tz4j47A-YI-116">
          <mxGeometry width="50" height="50" relative="1" as="geometry">
            <mxPoint x="935" y="1870" as="sourcePoint" />
            <mxPoint x="970" y="2050" as="targetPoint" />
          </mxGeometry>
        </mxCell>
        <mxCell id="lMeTxUYr87tz4j47A-YI-118" value="" style="edgeStyle=orthogonalEdgeStyle;rounded=0;orthogonalLoop=1;jettySize=auto;html=1;" edge="1" parent="1" source="lMeTxUYr87tz4j47A-YI-119">
          <mxGeometry relative="1" as="geometry">
            <mxPoint x="970" y="2150" as="targetPoint" />
          </mxGeometry>
        </mxCell>
        <mxCell id="lMeTxUYr87tz4j47A-YI-119" value="X=X-10" style="rounded=0;whiteSpace=wrap;html=1;" vertex="1" parent="1">
          <mxGeometry x="910" y="2050" width="120" height="50" as="geometry" />
        </mxCell>
        <mxCell id="lMeTxUYr87tz4j47A-YI-120" value="" style="edgeStyle=orthogonalEdgeStyle;rounded=0;orthogonalLoop=1;jettySize=auto;html=1;" edge="1" parent="1" source="lMeTxUYr87tz4j47A-YI-121">
          <mxGeometry relative="1" as="geometry">
            <mxPoint x="970" y="2250" as="targetPoint" />
          </mxGeometry>
        </mxCell>
        <mxCell id="lMeTxUYr87tz4j47A-YI-121" value="E=E-1" style="rounded=0;whiteSpace=wrap;html=1;" vertex="1" parent="1">
          <mxGeometry x="910" y="2150" width="120" height="50" as="geometry" />
        </mxCell>
        <mxCell id="lMeTxUYr87tz4j47A-YI-122" value="AA=AA+1" style="rounded=0;whiteSpace=wrap;html=1;" vertex="1" parent="1">
          <mxGeometry x="910" y="2250" width="120" height="50" as="geometry" />
        </mxCell>
        <mxCell id="lMeTxUYr87tz4j47A-YI-123" value="" style="endArrow=classic;html=1;rounded=0;" edge="1" parent="1">
          <mxGeometry width="50" height="50" relative="1" as="geometry">
            <mxPoint x="1010" y="1960" as="sourcePoint" />
            <mxPoint x="1075" y="1830" as="targetPoint" />
            <Array as="points">
              <mxPoint x="1075" y="1960" />
            </Array>
          </mxGeometry>
        </mxCell>
        <mxCell id="lMeTxUYr87tz4j47A-YI-124" value="" style="endArrow=classic;html=1;rounded=0;exitX=0.5;exitY=1;exitDx=0;exitDy=0;entryX=0;entryY=0.5;entryDx=0;entryDy=0;" edge="1" parent="1" source="lMeTxUYr87tz4j47A-YI-109" target="lMeTxUYr87tz4j47A-YI-111">
          <mxGeometry width="50" height="50" relative="1" as="geometry">
            <mxPoint x="810" y="1860" as="sourcePoint" />
            <mxPoint x="860" y="1810" as="targetPoint" />
            <Array as="points">
              <mxPoint x="760" y="2180" />
              <mxPoint x="680" y="2180" />
              <mxPoint x="680" y="1545" />
            </Array>
          </mxGeometry>
        </mxCell>
        <mxCell id="lMeTxUYr87tz4j47A-YI-125" value="" style="ellipse;whiteSpace=wrap;html=1;" vertex="1" parent="1">
          <mxGeometry x="950" y="1690" width="40" height="40" as="geometry" />
        </mxCell>
        <mxCell id="lMeTxUYr87tz4j47A-YI-126" value="" style="endArrow=classic;html=1;rounded=0;exitX=1;exitY=0.5;exitDx=0;exitDy=0;entryX=0.5;entryY=0;entryDx=0;entryDy=0;" edge="1" parent="1" source="lMeTxUYr87tz4j47A-YI-101" target="lMeTxUYr87tz4j47A-YI-125">
          <mxGeometry width="50" height="50" relative="1" as="geometry">
            <mxPoint x="810" y="1860" as="sourcePoint" />
            <mxPoint x="860" y="1810" as="targetPoint" />
            <Array as="points">
              <mxPoint x="970" y="1650" />
            </Array>
          </mxGeometry>
        </mxCell>
        <mxCell id="lMeTxUYr87tz4j47A-YI-127" value="" style="endArrow=classic;html=1;rounded=0;exitX=0.5;exitY=1;exitDx=0;exitDy=0;" edge="1" parent="1" source="lMeTxUYr87tz4j47A-YI-125" target="lMeTxUYr87tz4j47A-YI-114">
          <mxGeometry width="50" height="50" relative="1" as="geometry">
            <mxPoint x="810" y="2060" as="sourcePoint" />
            <mxPoint x="860" y="2010" as="targetPoint" />
          </mxGeometry>
        </mxCell>
        <mxCell id="lMeTxUYr87tz4j47A-YI-129" value="สรุปถอนเงิน" style="rounded=0;whiteSpace=wrap;html=1;" vertex="1" parent="1">
          <mxGeometry x="1165" y="1990" width="130" height="40" as="geometry" />
        </mxCell>
        <mxCell id="lMeTxUYr87tz4j47A-YI-134" value="Stop" style="strokeWidth=2;html=1;shape=mxgraph.flowchart.terminator;whiteSpace=wrap;" vertex="1" parent="1">
          <mxGeometry x="1165" y="2140" width="145" height="50" as="geometry" />
        </mxCell>
        <mxCell id="lMeTxUYr87tz4j47A-YI-135" value="" style="endArrow=classic;html=1;rounded=0;exitX=1;exitY=0.5;exitDx=0;exitDy=0;entryX=0.5;entryY=0;entryDx=0;entryDy=0;" edge="1" parent="1" source="lMeTxUYr87tz4j47A-YI-114" target="lMeTxUYr87tz4j47A-YI-129">
          <mxGeometry width="50" height="50" relative="1" as="geometry">
            <mxPoint x="810" y="2060" as="sourcePoint" />
            <mxPoint x="860" y="2010" as="targetPoint" />
            <Array as="points">
              <mxPoint x="1230" y="1830" />
            </Array>
          </mxGeometry>
        </mxCell>
        <mxCell id="lMeTxUYr87tz4j47A-YI-136" value="" style="endArrow=classic;html=1;rounded=0;exitX=0.5;exitY=1;exitDx=0;exitDy=0;entryX=0.455;entryY=-0.02;entryDx=0;entryDy=0;entryPerimeter=0;" edge="1" parent="1" source="lMeTxUYr87tz4j47A-YI-129" target="lMeTxUYr87tz4j47A-YI-134">
          <mxGeometry width="50" height="50" relative="1" as="geometry">
            <mxPoint x="810" y="2060" as="sourcePoint" />
            <mxPoint x="860" y="2010" as="targetPoint" />
          </mxGeometry>
        </mxCell>
        <mxCell id="lMeTxUYr87tz4j47A-YI-138" value="จ่ายธนาบัตร X" style="shape=parallelogram;perimeter=parallelogramPerimeter;whiteSpace=wrap;html=1;fixedSize=1;" vertex="1" parent="1">
          <mxGeometry y="900" width="160" height="40" as="geometry" />
        </mxCell>
        <mxCell id="lMeTxUYr87tz4j47A-YI-139" value="" style="endArrow=classic;html=1;rounded=0;exitX=0.5;exitY=1;exitDx=0;exitDy=0;entryX=0.421;entryY=-0.064;entryDx=0;entryDy=0;entryPerimeter=0;" edge="1" parent="1" source="lMeTxUYr87tz4j47A-YI-138" target="lMeTxUYr87tz4j47A-YI-46">
          <mxGeometry width="50" height="50" relative="1" as="geometry">
            <mxPoint x="560" y="1020" as="sourcePoint" />
            <mxPoint x="610" y="970" as="targetPoint" />
          </mxGeometry>
        </mxCell>
      </root>
    </mxGraphModel>
  </diagram>
</mxfile>
